<svg 
 xmlns="http://www.w3.org/2000/svg"
 xmlns:xlink="http://www.w3.org/1999/xlink"
 width="144px" height="145px">
<path fill-rule="evenodd"  fill="rgb(255, 255, 255)"
 d="M80.953,36.732 C80.918,36.817 80.865,36.890 80.800,36.952 L76.097,41.654 L77.864,48.188 C77.876,48.232 77.870,48.274 77.872,48.317 C77.876,48.351 77.881,48.383 77.878,48.418 C77.876,48.446 77.867,48.472 77.860,48.500 C77.849,48.551 77.835,48.600 77.809,48.647 C77.790,48.685 77.762,48.716 77.736,48.749 C77.719,48.768 77.712,48.791 77.692,48.809 C77.686,48.814 77.678,48.816 77.672,48.821 C77.618,48.871 77.555,48.908 77.484,48.938 C77.480,48.939 77.477,48.942 77.474,48.943 C77.450,48.953 77.431,48.970 77.405,48.977 C77.348,48.992 77.292,48.988 77.235,48.987 C77.234,48.987 77.232,48.988 77.231,48.988 C77.161,48.987 77.095,48.975 77.031,48.953 C77.007,48.946 76.985,48.939 76.963,48.930 C76.925,48.912 76.892,48.891 76.858,48.866 C76.831,48.848 76.800,48.838 76.775,48.815 L71.000,44.715 L65.225,48.815 C65.200,48.838 65.169,48.848 65.141,48.866 C65.108,48.891 65.075,48.912 65.037,48.930 C65.015,48.939 64.993,48.946 64.969,48.953 C64.904,48.975 64.839,48.987 64.769,48.988 C64.767,48.988 64.766,48.987 64.765,48.987 C64.708,48.988 64.652,48.992 64.595,48.977 C64.569,48.970 64.550,48.953 64.526,48.943 C64.522,48.942 64.520,48.939 64.516,48.938 C64.445,48.908 64.382,48.871 64.327,48.821 C64.321,48.816 64.313,48.814 64.307,48.809 C64.288,48.791 64.281,48.768 64.264,48.749 C64.238,48.716 64.210,48.685 64.190,48.647 C64.165,48.600 64.151,48.551 64.139,48.500 C64.133,48.472 64.124,48.446 64.121,48.418 C64.119,48.383 64.124,48.351 64.128,48.317 C64.130,48.274 64.124,48.232 64.136,48.188 L65.902,41.654 L61.200,36.952 C61.134,36.890 61.081,36.817 61.047,36.732 C60.952,36.507 60.995,36.237 61.179,36.053 C61.304,35.928 61.468,35.870 61.632,35.874 L66.896,35.874 L70.459,29.296 C70.465,29.285 70.477,29.279 70.484,29.269 C70.506,29.236 70.535,29.209 70.564,29.180 C70.595,29.150 70.625,29.121 70.660,29.098 C70.671,29.091 70.677,29.081 70.687,29.075 C70.710,29.062 70.735,29.062 70.758,29.052 C70.799,29.035 70.839,29.019 70.883,29.011 C70.922,29.004 70.960,29.003 71.000,29.003 C71.040,29.003 71.077,29.004 71.117,29.011 C71.161,29.019 71.201,29.035 71.242,29.052 C71.265,29.062 71.290,29.062 71.312,29.075 C71.323,29.081 71.329,29.091 71.339,29.098 C71.375,29.121 71.405,29.150 71.435,29.180 C71.465,29.209 71.494,29.236 71.516,29.269 C71.523,29.279 71.535,29.285 71.541,29.296 L75.104,35.874 L80.368,35.874 C80.531,35.870 80.696,35.928 80.821,36.053 C81.004,36.237 81.048,36.506 80.953,36.732 ZM74.830,37.123 C74.824,37.124 74.818,37.123 74.812,37.123 L74.750,37.123 C74.739,37.123 74.730,37.117 74.719,37.117 C74.651,37.113 74.586,37.102 74.523,37.077 C74.509,37.072 74.498,37.065 74.484,37.059 C74.424,37.031 74.370,36.995 74.320,36.948 C74.311,36.939 74.303,36.930 74.294,36.920 C74.265,36.889 74.231,36.864 74.209,36.826 L71.000,30.902 L67.791,36.826 C67.769,36.864 67.734,36.889 67.705,36.920 C67.697,36.930 67.689,36.939 67.680,36.948 C67.630,36.995 67.576,37.031 67.515,37.059 C67.502,37.065 67.490,37.072 67.477,37.077 C67.414,37.102 67.349,37.113 67.281,37.117 C67.270,37.117 67.261,37.123 67.250,37.123 L67.187,37.123 C67.181,37.123 67.176,37.124 67.170,37.123 L63.127,37.123 L67.071,41.066 C67.084,41.080 67.089,41.098 67.101,41.112 C67.138,41.156 67.170,41.200 67.194,41.251 C67.203,41.272 67.208,41.293 67.215,41.314 C67.236,41.373 67.249,41.433 67.251,41.496 C67.251,41.505 67.249,41.514 67.249,41.523 C67.249,41.577 67.254,41.630 67.239,41.684 L65.836,46.871 L70.505,43.556 C70.640,43.431 70.821,43.380 71.000,43.391 C71.179,43.380 71.359,43.431 71.495,43.556 L76.163,46.871 L74.761,41.684 C74.746,41.630 74.751,41.577 74.751,41.523 C74.750,41.514 74.749,41.505 74.749,41.496 C74.751,41.433 74.764,41.373 74.784,41.314 C74.791,41.293 74.797,41.272 74.806,41.251 C74.830,41.200 74.862,41.156 74.899,41.112 C74.911,41.098 74.915,41.080 74.929,41.066 L78.873,37.123 L74.830,37.123 Z"/>
</svg>