<svg xmlns="http://www.w3.org/2000/svg" width="32" height="32" viewBox="0 0 33 33">
  <symbol id="arrow-right">
    <path d="M1155,2242a16,16,0,1,0-16-16A16,16,0,0,0,1155,2242Zm0-2a14,14,0,1,0-14-14A14,14,0,0,0,1155,2240Zm-2.8-8.19a0.713,0.713,0,0,0,.98,0l5.62-5.35a0.635,0.635,0,0,0,0-.93,0.713,0.713,0,0,0-.98,0l-5.62,5.34A0.647,0.647,0,0,0,1152.2,2231.81Zm6.6-5.33a0.713,0.713,0,0,1-.98,0l-5.62-5.35a0.647,0.647,0,0,1,0-.94,0.713,0.713,0,0,1,.98,0l5.62,5.35A0.647,0.647,0,0,1,1158.8,2226.48Z" transform="translate(-1139 -2210)" fill="currentColor" fill-rule="evenodd"/>
  </symbol>
  <symbol id="arrow-left">
    <path d="M761,2210a16,16,0,1,0,16,16A16,16,0,0,0,761,2210Zm0,2a14,14,0,1,0,14,14A14,14,0,0,0,761,2212Zm2.8,8.19a0.717,0.717,0,0,0-.983,0l-5.615,5.35a0.632,0.632,0,0,0,0,.93,0.717,0.717,0,0,0,.983,0l5.615-5.34A0.643,0.643,0,0,0,763.8,2220.19Zm-6.6,5.33a0.717,0.717,0,0,1,.983,0l5.615,5.35a0.643,0.643,0,0,1,0,.94,0.717,0.717,0,0,1-.983,0l-5.615-5.35A0.643,0.643,0,0,1,757.2,2225.52Z" transform="translate(-745 -2210)" fill="currentColor" fill-rule="evenodd"/>
  </symbol>
</svg>
