<svg xmlns="http://www.w3.org/2000/svg" width="32" height="32" viewBox="0 0 33 33">
  <symbol id="arrow-right">
    <path d="M1155,2242a16,16,0,1,0-16-16A16,16,0,0,0,1155,2242Zm0-2a14,14,0,1,0-14-14A14,14,0,0,0,1155,2240Zm-2.8-8.19a0.713,0.713,0,0,0,.98,0l5.62-5.35a0.635,0.635,0,0,0,0-.93,0.713,0.713,0,0,0-.98,0l-5.62,5.34A0.647,0.647,0,0,0,1152.2,2231.81Zm6.6-5.33a0.713,0.713,0,0,1-.98,0l-5.62-5.35a0.647,0.647,0,0,1,0-.94,0.713,0.713,0,0,1,.98,0l5.62,5.35A0.647,0.647,0,0,1,1158.8,2226.48Z" transform="translate(-1139 -2210)" fill="currentColor" fill-rule="evenodd"/>
  </symbol>
  <symbol id="arrow-left">
    <path d="M761,2210a16,16,0,1,0,16,16A16,16,0,0,0,761,2210Zm0,2a14,14,0,1,0,14,14A14,14,0,0,0,761,2212Zm2.8,8.19a0.717,0.717,0,0,0-.983,0l-5.615,5.35a0.632,0.632,0,0,0,0,.93,0.717,0.717,0,0,0,.983,0l5.615-5.34A0.643,0.643,0,0,0,763.8,2220.19Zm-6.6,5.33a0.717,0.717,0,0,1,.983,0l5.615,5.35a0.643,0.643,0,0,1,0,.94,0.717,0.717,0,0,1-.983,0l-5.615-5.35A0.643,0.643,0,0,1,757.2,2225.52Z" transform="translate(-745 -2210)" fill="currentColor" fill-rule="evenodd"/>
  </symbol>

  <symbol id="fb" width="8" height="15" viewBox="0 0 8 15">
    <path fill-rule="evenodd"  fill="#efebe4" d="M3.000,15.000 L3.000,8.000 L-0.000,7.999 L-0.000,6.000 L3.000,6.000 L3.000,2.999 C3.000,0.661 4.182,0.004 6.229,0.004 C7.209,0.004 7.725,0.111 7.971,0.145 L7.971,2.511 L6.235,2.511 C5.122,2.511 5.000,4.209 5.000,5.000 L5.000,6.000 L8.000,6.000 L7.500,7.999 L5.000,7.999 L5.000,14.999 L3.000,15.000 Z"/>
  </symbol>
  <symbol id="inst" width="14" height="16" viewBox="0 0 14 16">
    <path fill-rule="evenodd"  fill="#efebe4" d="M11.500,15.999 L2.500,15.999 C1.119,15.999 -0.000,14.880 -0.000,13.499 L-0.000,2.499 C-0.000,1.118 1.119,-0.001 2.500,-0.001 L11.500,-0.001 C12.881,-0.001 14.000,1.118 14.000,2.499 L14.000,13.499 C14.000,14.880 12.881,15.999 11.500,15.999 ZM7.000,3.996 C4.793,3.996 3.004,5.787 3.004,7.997 C3.004,10.205 4.793,11.997 7.000,11.997 C9.206,11.997 10.995,10.205 10.995,7.997 C10.995,5.787 9.206,3.996 7.000,3.996 ZM12.000,1.999 L10.000,1.999 L10.000,3.999 L12.000,3.999 L12.000,1.999 ZM13.000,8.999 C13.000,8.999 13.000,8.999 13.000,8.999 L13.000,8.999 L13.000,6.999 L12.000,6.999 L12.000,7.276 C11.984,7.267 11.966,7.264 11.950,7.255 C11.965,7.420 11.997,7.580 11.997,7.749 C11.997,10.647 9.760,12.996 7.000,12.996 C4.240,12.996 2.002,10.647 2.002,7.749 C2.002,7.580 2.035,7.420 2.049,7.255 C2.034,7.264 2.015,7.267 2.000,7.276 L2.000,6.999 L1.000,6.999 L1.000,8.999 L1.000,8.999 C1.000,8.999 1.000,8.999 1.000,8.999 L1.000,12.999 C1.000,14.103 1.895,14.999 3.000,14.999 L11.000,14.999 C12.104,14.999 13.000,14.103 13.000,12.999 L13.000,8.999 Z"/>
  </symbol>
  <symbol id="tw" width="16" height="13" viewBox="0 0 16 13">
    <path fill-rule="evenodd"  fill="#efebe4" d="M16.000,1.495 L14.500,2.992 C14.500,2.992 14.500,2.856 14.500,3.241 C14.500,3.515 14.456,3.776 14.392,4.029 C14.357,6.088 13.699,8.818 11.000,10.973 C5.689,15.210 -0.000,11.471 -0.000,11.471 C4.500,11.471 4.500,9.974 4.500,9.974 C3.500,9.974 1.500,7.980 1.500,7.980 C2.000,8.478 3.000,7.980 3.000,7.980 C0.500,6.483 0.500,4.987 0.500,4.987 C1.000,5.485 2.000,4.987 2.000,4.987 C-0.500,2.992 1.000,0.498 1.000,0.498 C1.500,2.992 8.000,3.989 8.000,3.989 L8.083,3.948 C8.032,3.720 8.000,3.235 8.000,2.992 C8.000,1.201 9.455,-0.001 11.250,-0.001 C12.238,-0.001 13.112,0.448 13.708,1.142 L14.000,0.996 L15.500,-0.001 L14.500,1.994 L16.000,1.495 Z"/>
  </symbol>

  <symbol id="star" width="20" height="20" viewBox="0 0 20 20">
    <path id="interface_-_favorite_star_" d="M305.687,2106.08a0.633,0.633,0,0,1,.854.22l3.75,6.92a0.6,0.6,0,0,1-.229.83,0.641,0.641,0,0,1-.853-0.22l-3.75-6.93A0.585,0.585,0,0,1,305.687,2106.08Zm0.625,0a0.632,0.632,0,0,0-.853.22l-3.75,6.92a0.6,0.6,0,0,0,.228.83,0.642,0.642,0,0,0,.854-0.22l3.75-6.93A0.585,0.585,0,0,0,306.312,2106.08Zm3.438,6.79h5.625a0.625,0.625,0,1,1,0,1.25H309.75A0.625,0.625,0,1,1,309.75,2112.87Zm-13.125,0h5.625a0.625,0.625,0,1,1,0,1.25h-5.625A0.625,0.625,0,1,1,296.625,2112.87Zm-0.446.18a0.625,0.625,0,0,1,.878,0l5.014,5.02a0.618,0.618,0,0,1-.878.87l-5.014-5.01A0.624,0.624,0,0,1,296.179,2113.05Zm19.642,0a0.625,0.625,0,0,0-.878,0l-5.014,5.02a0.618,0.618,0,0,0,.878.87l5.014-5.01A0.624,0.624,0,0,0,315.821,2113.05Zm-14.041,4.85a0.635,0.635,0,0,1,.459.78l-1.849,6.84a0.648,0.648,0,0,1-1.254-.33l1.848-6.84A0.644,0.644,0,0,1,301.78,2117.9Zm8.44,0a0.635,0.635,0,0,0-.459.78l1.849,6.84a0.648,0.648,0,0,0,1.254-.33l-1.849-6.84A0.643,0.643,0,0,0,310.22,2117.9Zm-3.8,2.66a0.684,0.684,0,0,0-.917,0l-6.2,4.4a0.571,0.571,0,0,0,.007.85,0.686,0.686,0,0,0,.918.01l6.2-4.41A0.571,0.571,0,0,0,306.422,2120.56Zm-0.844,0a0.684,0.684,0,0,1,.917,0l6.2,4.4a0.569,0.569,0,0,1-.007.85,0.685,0.685,0,0,1-.917.01l-6.2-4.41A0.57,0.57,0,0,1,305.578,2120.56Z" transform="translate(-296 -2105.97)"/>
  </symbol>
  <symbol id="star-fill" width="20" height="20" viewBox="0 0 13.438 12.82">
    <path id="Star_-_alt_Kopie_4" d="M848,2125.6l2.078,4.21,4.647,0.68-3.362,3.28,0.794,4.63L848,2136.21l-4.156,2.19,0.794-4.63-3.363-3.28,4.647-.68Z" transform="translate(-841.281 -2125.59)"/>
  </symbol>
</svg>
